<svg width="380" height="244" viewBox="0 0 380 244" fill="none" xmlns="http://www.w3.org/2000/svg">
<g clip-path="url(#clip0_4589_2228)">
<mask id="mask0_4589_2228" style="mask-type:luminance" maskUnits="userSpaceOnUse" x="0" y="0" width="380" height="244">
<path d="M380 0H0V244H380V0Z" fill="white"/>
</mask>
<g mask="url(#mask0_4589_2228)">
<path d="M181.5 11.5C181.84 19.167 182.34 23.167 183 23.5C183.34 23.667 183.67 23.834 184 24C184 20.167 184 16.334 184 12.5C184 4.834 183.5 0.834 182.5 0.5C182 0.334 181.5 0.167 181 0C181.17 3.834 181.34 7.667 181.5 11.5ZM306.502 23C304.336 27.334 302.169 31.667 300.002 36C301.669 33.667 303.336 31.334 305.002 29C308.336 24.334 310.836 20.334 312.502 17C314.169 13.667 314.669 11.667 314.002 11C313.669 10.667 313.336 10.334 313.002 10C310.836 14.334 308.669 18.667 306.502 23ZM243.002 23C240.336 31 239.169 35.334 239.502 36C239.836 36.667 241.169 36.667 243.502 36C244.669 35.667 245.836 35.334 247.002 35C247.002 35.334 247.002 35.667 247.002 36C247.002 36.667 245.002 40.167 241.002 46.5C237.002 52.834 235.169 56.334 235.502 57C235.669 57.334 235.836 57.667 236.002 58C238.502 54.167 241.002 50.334 243.502 46.5C248.502 38.834 251.002 34.5 251.002 33.5C251.002 33 251.002 32.5 251.002 32C249.669 32.334 248.336 32.667 247.002 33C245.669 33.334 244.336 33.667 243.002 34C243.836 31 244.669 28 245.502 25C247.169 19 247.836 15.167 247.502 13.5C247.336 12.667 247.169 11.834 247.002 11C245.669 15 244.336 19 243.002 23ZM121.5 28C122.5 34.667 123.5 38.334 124.5 39C125.5 39.667 126.67 39.167 128 37.5C128.67 36.667 129.34 35.834 130 35C130.84 38 131.67 41 132.5 44C134.17 50 135.5 53.167 136.5 53.5C137 53.667 137.5 53.834 138 54C137 50.334 136 46.667 135 43C133 35.667 131.67 31.834 131 31.5C130.34 31.167 129.17 31.667 127.5 33C126.67 33.667 125.84 34.334 125 35C124.67 32.834 124.34 30.667 124 28.5C123.34 24.167 122.5 21.334 121.5 20C121 19.334 120.5 18.667 120 18C120.5 21.334 121 24.667 121.5 28ZM50 30C50 31.334 51.67 34.667 55 40C56.67 42.667 58.34 45.334 60 48C60.17 47.667 60.34 47.334 60.5 47C60.84 46.334 59.17 43 55.5 37C53.67 34 51.84 31 50 28C50 28.667 50 29.334 50 30ZM183 47.5C182.34 48.5 181 48.834 179 48.5C177 48.167 175.84 48.334 175.5 49C175.17 49.667 174.34 49.834 173 49.5C171.67 49.167 170.5 49.334 169.5 50C168.5 50.667 168 55.5 168 64.5C168 73.5 167.34 78.5 166 79.5C164.67 80.5 164.17 82 164.5 84C164.84 86 167.17 90.834 171.5 98.5C173.67 102.334 175.84 106.167 178 110C174.84 110.667 171.67 111.334 168.5 112C162.17 113.334 156.5 115.334 151.5 118C146.5 120.667 140.5 120.667 133.5 118C126.5 115.334 120.5 113.834 115.5 113.5C110.5 113.167 107.17 110.667 105.5 106C103.84 101.334 103.67 94.334 105 85C106.34 75.667 105.84 69.334 103.5 66C101.17 62.667 98.84 60.5 96.5 59.5C94.17 58.5 91.17 58 87.5 58C83.84 58 79.34 59.5 74 62.5C68.67 65.5 65.34 68.667 64 72C62.67 75.334 62.17 78.5 62.5 81.5C62.84 84.5 62.34 86.334 61 87C59.67 87.667 59.17 89.167 59.5 91.5C59.84 93.834 60.34 95.667 61 97C61.67 98.334 62.67 99.167 64 99.5C65.34 99.834 66.5 101.667 67.5 105C68.5 108.334 69.84 110.834 71.5 112.5C73.17 114.167 74.84 115.167 76.5 115.5C78.17 115.834 79.17 116.5 79.5 117.5C79.84 118.5 76 121 68 125C60 129 52.84 133.834 46.5 139.5C40.17 145.167 35.34 150.5 32 155.5C28.67 160.5 26 166 24 172C22 178 21 184 21 190C21 196 21.84 200.667 23.5 204C25.17 207.334 27.67 210 31 212C34.34 214 37.84 215 41.5 215C43.34 215 45.17 215 47 215C46.67 219.667 46.34 224.334 46 229C45.67 233.667 45.34 238.334 45 243C45.34 243 45.67 243 46 243C46.67 243 47.34 238.334 48 229C48.67 219.667 52.67 214.334 60 213C67.34 211.667 76 208.667 86 204C96 199.334 102.34 197.667 105 199C107.67 200.334 111 203.334 115 208C119 212.667 123.34 215.667 128 217C132.67 218.334 135 223.167 135 231.5C135 235.667 135 239.834 135 244C135.34 244 135.67 244 136 244C136.34 244 136.67 244 137 244C137 239.834 137 235.667 137 231.5C137 223.167 140.84 218 148.5 216C156.17 214 163.17 210.834 169.5 206.5C175.84 202.167 187 202.5 203 207.5C219.002 212.5 232.002 215.334 242.002 216C252.002 216.667 257.336 221.167 258.002 229.5C258.669 237.834 259.336 242 260.002 242C260.336 242 260.669 242 261.002 242C260.836 237.667 260.669 233.334 260.502 229C260.169 220.334 261.836 215.334 265.502 214C269.169 212.667 272.169 211 274.502 209C276.836 207 279.502 202.5 282.502 195.5C285.502 188.5 293.669 187.5 307.002 192.5C320.336 197.5 329.002 200.334 333.002 201C337.002 201.667 338.669 204.834 338.002 210.5C337.336 216.167 337.002 221 337.002 225C337.002 227 337.002 229 337.002 231C337.336 231 337.669 231 338.002 231C338.669 231 339.336 226.167 340.002 216.5C340.669 206.834 342.336 201.834 345.002 201.5C347.669 201.167 350.669 199.667 354.002 197C357.336 194.334 359.336 190 360.002 184C360.669 178 359.502 170.834 356.502 162.5C353.502 154.167 350.002 147.334 346.002 142C342.002 136.667 336.502 131.334 329.502 126C322.502 120.667 316.169 117 310.502 115C304.836 113 302.002 111.5 302.002 110.5C302.002 109.5 302.669 108.667 304.002 108C305.336 107.334 306.502 106 307.502 104C308.502 102 309.002 98.334 309.002 93C309.002 87.667 309.669 83 311.002 79C312.336 75 312.669 72.834 312.002 72.5C311.336 72.167 310.169 72.5 308.502 73.5C307.669 74 306.836 74.5 306.002 75C305.336 73 304.669 71 304.002 69C302.669 65 300.336 61.5 297.002 58.5C293.669 55.5 289.336 53.834 284.002 53.5C278.669 53.167 274.336 53.667 271.002 55C267.669 56.334 264.502 58.167 261.502 60.5C258.502 62.834 256.002 65.5 254.002 68.5C252.002 71.5 250.669 74.167 250.002 76.5C249.336 78.834 249.002 84.334 249.002 93C249.002 101.667 248.169 108 246.502 112C244.836 116 243.502 118 242.502 118C241.502 118 238.669 117 234.002 115C229.336 113 224.002 111.5 218.002 110.5C215.002 110 212.002 109.5 209 109C210.836 105.167 212.669 101.334 214.502 97.5C218.169 89.834 220.002 84.834 220.002 82.5C220.002 80.167 219.502 78.667 218.502 78C217.502 77.334 217.336 75.167 218.002 71.5C218.669 67.834 218.669 63.167 218.002 57.5C217.336 51.834 215.002 49 211.002 49C207 49 204.67 48.5 204 47.5C203.34 46.5 202.34 46.334 201 47C199.67 47.667 198.5 47.667 197.5 47C196.5 46.334 195 46.334 193 47C191 47.667 189 47.667 187 47C185 46.334 183.67 46.5 183 47.5ZM348.002 61.5C345.336 65.834 342.669 69.167 340.002 71.5C337.336 73.834 336.002 75.5 336.002 76.5C336.002 77 336.002 77.5 336.002 78C337.836 77.834 339.669 77.667 341.502 77.5C343.336 77.334 345.169 77.167 347.002 77C343.836 79.334 340.669 81.667 337.502 84C331.169 88.667 328.002 91.334 328.002 92C328.002 92.334 328.002 92.667 328.002 93C332.002 90.167 336.002 87.334 340.002 84.5C348.002 78.834 351.836 75.5 351.502 74.5C351.169 73.5 349.502 73.167 346.502 73.5C345.002 73.667 343.502 73.834 342.002 74C344.002 71.334 346.002 68.667 348.002 66C352.002 60.667 354.002 57.5 354.002 56.5C354.002 56 354.002 55.5 354.002 55C353.669 55 353.336 55 353.002 55C352.336 55 350.669 57.167 348.002 61.5ZM196.5 64.5C205.5 64.834 210.002 66.167 210.002 68.5C210.002 69.667 210.002 70.834 210.002 72C209.17 71.334 208.34 70.667 207.5 70C205.84 68.667 204 68 202 68C200 68 198.34 68.834 197 70.5C195.67 72.167 194 73 192 73C190 73 188.5 72.334 187.5 71C186.5 69.667 184.67 69 182 69C179.34 69 177.34 69.667 176 71C175.34 71.667 174.67 72.334 174 73C174 71.834 174 70.667 174 69.5C174 67.167 175.5 65.667 178.5 65C181.5 64.334 187.5 64.167 196.5 64.5ZM181 71C181.17 71.5 181.34 72 181.5 72.5C181.84 73.5 181.17 75.167 179.5 77.5C178.67 78.667 177.84 79.834 177 81C177.67 79.334 178.34 77.667 179 76C179.67 74.334 180.34 72.667 181 71ZM298.502 71C300.836 71 302.336 71.5 303.002 72.5C303.669 73.5 304.002 74.5 304.002 75.5C304.002 76.5 303.169 77.834 301.502 79.5C299.836 81.167 298.336 82.167 297.002 82.5C295.669 82.834 294.169 82.5 292.502 81.5C290.836 80.5 288.169 79.834 284.502 79.5C280.836 79.167 279.002 78.5 279.002 77.5C279.002 76.5 279.669 75.667 281.002 75C282.336 74.334 285.002 73.5 289.002 72.5C293.002 71.5 296.169 71 298.502 71ZM200 72C200.34 72.167 200.67 72.334 201 72.5C201.34 72.667 201.67 72.834 202 73C201.17 74.167 200.34 75.334 199.5 76.5C198.67 77.667 197.84 78.834 197 80C197.5 78.667 198 77.334 198.5 76C199 74.667 199.5 73.334 200 72ZM206 74C206.17 74.5 206.34 75 206.5 75.5C206.84 76.5 206 78.167 204 80.5C203 81.667 202 82.834 201 84C201.84 82.334 202.67 80.667 203.5 79C204.34 77.334 205.17 75.667 206 74ZM83.5 75C88.5 75 91.17 75.834 91.5 77.5C91.67 78.334 91.84 79.167 92 80C87.5 80.834 83 81.667 78.5 82.5C74 83.334 69.5 84.167 65 85C65.17 83.834 65.34 82.667 65.5 81.5C65.84 79.167 67.67 77.5 71 76.5C74.34 75.5 78.5 75 83.5 75ZM190 75C190.67 75 191.34 75 192 75C192.67 75 193.34 75 194 75C194 76.334 194 77.667 194 79C194 81.667 195 83.834 197 85.5C199 87.167 201.17 87.834 203.5 87.5C205.84 87.167 207.67 85.834 209 83.5C210.336 81.167 211.336 80.167 212.002 80.5C212.669 80.834 213.002 83.334 213.002 88C213.002 92.667 211.836 97.167 209.502 101.5C207.17 105.834 206 109.5 206 112.5C206 115.5 204 119.667 200 125C196 130.334 193.67 133 193 133C192.34 133 190.34 130.5 187 125.5C183.67 120.5 181.84 116 181.5 112C181.17 108 179.67 104.667 177 102C174.34 99.334 172.67 95.334 172 90C171.34 84.667 171.34 81.667 172 81C172.34 80.667 172.67 80.334 173 80C173.34 80.834 173.67 81.667 174 82.5C174.67 84.167 175.84 85.5 177.5 86.5C179.17 87.5 181 87.834 183 87.5C185 87.167 186.5 86.5 187.5 85.5C188 85 188.5 84.5 189 84C189.17 84.834 189.34 85.667 189.5 86.5C189.84 88.167 190.67 89 192 89C192.67 89 193.34 89 194 89C193.67 88.667 193.34 88.334 193 88C192.34 87.334 192 85.167 192 81.5C192 77.834 191.67 75.834 191 75.5C190.67 75.334 190.34 75.167 190 75ZM5 78.5C5 79.5 8.17 82.834 14.5 88.5C20.84 94.167 24.5 97 25.5 97C26 97 26.5 97 27 97C26.84 95.334 26.67 93.667 26.5 92C26.34 90.334 26.17 88.667 26 87C26.34 87 26.67 87 27 87C27.67 87 29.84 89.5 33.5 94.5C37.17 99.5 39.67 102.334 41 103C41.67 103.334 42.34 103.667 43 104C40.34 100.334 37.67 96.667 35 93C29.67 85.667 26.5 82 25.5 82C24.5 82 23.84 83.834 23.5 87.5C23.34 89.334 23.17 91.167 23 93C21.34 91.167 19.67 89.334 18 87.5C14.67 83.834 11.67 81.167 9 79.5C7.67 78.667 6.34 77.834 5 77C5 77.5 5 78 5 78.5ZM276.002 79C276.002 79.5 276.002 80 276.002 80.5C276.002 81.5 276.836 82.834 278.502 84.5C280.169 86.167 282.336 87.834 285.002 89.5C287.669 91.167 290.169 91.834 292.502 91.5C294.836 91.167 296.169 89.834 296.502 87.5C296.836 85.167 297.336 84 298.002 84C298.336 84 298.669 84 299.002 84C299.002 85.334 299.002 86.667 299.002 88C299.002 89.334 299.002 90.667 299.002 92C299.502 91.834 300.002 91.667 300.502 91.5C301.502 91.167 302.002 90.5 302.002 89.5C302.002 89 302.002 88.5 302.002 88C302.836 88 303.669 88 304.502 88C305.336 88 306.169 88 307.002 88C306.836 90.5 306.669 93 306.502 95.5C306.169 100.5 304.836 104 302.502 106C300.169 108 298.836 112.334 298.502 119C298.336 122.334 298.169 125.667 298.002 129C297.169 128.667 296.336 128.334 295.502 128C293.836 127.334 290.669 124.334 286.002 119C281.336 113.667 278.836 108.5 278.502 103.5C278.169 98.5 277.002 94.834 275.002 92.5C273.002 90.167 272.169 88.5 272.502 87.5C272.836 86.5 274.002 86.167 276.002 86.5C277.002 86.667 278.002 86.834 279.002 87C278.336 86.167 277.669 85.334 277.002 84.5C275.669 82.834 275.169 81.5 275.502 80.5C275.669 80 275.836 79.5 276.002 79ZM88 83C88.84 83 89.67 83 90.5 83C92.17 83 93.17 83.834 93.5 85.5C93.67 86.334 93.84 87.167 94 88C95.34 87.334 96.67 86.667 98 86C99.34 85.334 100.67 84.667 102 84C101.84 86.667 101.67 89.334 101.5 92C101.17 97.334 102 102.5 104 107.5C106 112.5 105.17 117 101.5 121C97.84 125 94 128 90 130C88 131 86 132 84 133C83.67 130.167 83.34 127.334 83 124.5C82.34 118.834 80.17 114.834 76.5 112.5C72.84 110.167 70.5 107.167 69.5 103.5C69 101.667 68.5 99.834 68 98C68.84 97.834 69.67 97.667 70.5 97.5C71.34 97.334 72.17 97.167 73 97C73 97.5 73 98 73 98.5C73 99 73 99.5 73 100C73.67 100 74.34 100 75 100C75.67 100 76.34 100 77 100C76.5 99.334 76 98.667 75.5 98C74.5 96.667 74 95.167 74 93.5C74 92.667 74 91.834 74 91C74.5 91.834 75 92.667 75.5 93.5C76.5 95.167 78.34 95.834 81 95.5C83.67 95.167 85.5 94.5 86.5 93.5C87.5 92.5 88 90.5 88 87.5C88 86 88 84.5 88 83ZM84 84C83.67 85.5 83.34 87 83 88.5C82.34 91.5 81.67 93 81 93C80.67 93 80.34 93 80 93C80.67 91.5 81.34 90 82 88.5C82.67 87 83.34 85.5 84 84ZM68 88C68 89 68 90 68 91C68 93 67.5 94.334 66.5 95C66 95.334 65.5 95.667 65 96C65.5 94.667 66 93.334 66.5 92C67 90.667 67.5 89.334 68 88ZM200 92C200 92.667 198.5 93.167 195.5 93.5C192.5 93.834 190.84 94.5 190.5 95.5C190.34 96 190.17 96.5 190 97C191.84 96.667 193.67 96.334 195.5 96C199.17 95.334 201.17 94.334 201.5 93C201.67 92.334 201.84 91.667 202 91C201.67 91 201.34 91 201 91C200.67 91 200.34 91 200 91C200 91.334 200 91.667 200 92ZM288.002 96C288.002 97.334 289.169 98.167 291.502 98.5C292.669 98.667 293.836 98.834 295.002 99C295.002 98.667 295.002 98.334 295.002 98C295.002 97.667 295.002 97.334 295.002 97C294.336 97 293.669 97 293.002 97C291.669 97 290.502 96.5 289.502 95.5C289.002 95 288.502 94.5 288.002 94C288.002 94.667 288.002 95.334 288.002 96ZM82 100.5C81 101.667 80 102.834 79 104C80.34 103.5 81.67 103 83 102.5C85.67 101.5 87 100.334 87 99C87 98.334 87 97.667 87 97C86.67 97 86.34 97 86 97C85.34 97 84 98.167 82 100.5ZM177 112C177.67 112 178.5 113.667 179.5 117C180.5 120.334 182.67 124.167 186 128.5C189.34 132.834 191.5 135 192.5 135C193.5 135 195.5 133.5 198.5 130.5C201.5 127.5 204 124.334 206 121C208 117.667 209 115.334 209 114C209 113.334 209 112.667 209 112C212.336 112.5 215.669 113 219.002 113.5C225.669 114.5 232.502 116.5 239.502 119.5C246.502 122.5 253.669 127.167 261.002 133.5C268.336 139.834 273.336 145.334 276.002 150C278.669 154.667 280.502 159.334 281.502 164C282.002 166.334 282.502 168.667 283.002 171C278.002 170.834 273.002 170.667 268.002 170.5C258.002 170.167 251.169 170.334 247.502 171C243.836 171.667 240.502 167.167 237.502 157.5C236.002 152.667 234.502 147.834 233.002 143C232.669 143.334 232.336 143.667 232.002 144C231.336 144.667 232.336 149.334 235.002 158C236.336 162.334 237.669 166.667 239.002 171C236.836 169.5 234.669 168 232.502 166.5C228.169 163.5 222.836 161.167 216.502 159.5C210.169 157.834 203 157 195 157C187 157 177.67 158 167 160C161.67 161 156.34 162 151 163C152.17 160.334 153.34 157.667 154.5 155C156.84 149.667 157.84 146.667 157.5 146C157.34 145.667 157.17 145.334 157 145C155.84 146.834 154.67 148.667 153.5 150.5C151.17 154.167 149.84 157.167 149.5 159.5C149.17 161.834 145.34 164 138 166C130.67 168 123.67 170.5 117 173.5C113.67 175 110.34 176.5 107 178C107.34 175.667 107.67 173.334 108 171C108.67 166.334 109.84 162 111.5 158C113.17 154 116.67 148.834 122 142.5C127.34 136.167 133.17 131 139.5 127C145.84 123 153.5 119.5 162.5 116.5C171.5 113.5 176.34 112 177 112ZM274.502 112C276.836 112 280.002 114.5 284.002 119.5C288.002 124.5 291.336 127.834 294.002 129.5C296.669 131.167 298.502 131.334 299.502 130C300.502 128.667 301.169 125.667 301.502 121C301.669 118.667 301.836 116.334 302.002 114C305.169 115.334 308.336 116.667 311.502 118C317.836 120.667 324.836 125.334 332.502 132C340.169 138.667 345.836 145.667 349.502 153C351.336 156.667 353.169 160.334 355.002 164C352.002 163.334 349.002 162.667 346.002 162C340.002 160.667 336.169 157.834 334.502 153.5C332.836 149.167 330.669 145.334 328.002 142C326.669 140.334 325.336 138.667 324.002 137C323.836 137.5 323.669 138 323.502 138.5C323.169 139.5 323.669 140.5 325.002 141.5C326.336 142.5 328.169 145.5 330.502 150.5C331.669 153 332.836 155.5 334.002 158C331.836 156.667 329.669 155.334 327.502 154C323.169 151.334 318.502 149.334 313.502 148C308.502 146.667 303.336 146 298.002 146C292.669 146 288.002 146.5 284.002 147.5C280.002 148.5 275.836 146.167 271.502 140.5C267.169 134.834 262.336 130.334 257.002 127C254.336 125.334 251.669 123.667 249.002 122C250.836 120.834 252.669 119.667 254.502 118.5C258.169 116.167 261.836 114.5 265.502 113.5C269.169 112.5 272.169 112 274.502 112ZM116.5 116.5C122.17 116.834 127.34 118 132 120C134.34 121 136.67 122 139 123C136 125.667 133 128.334 130 131C124 136.334 119.34 141.667 116 147C112.67 152.334 106.34 154.667 97 154C87.67 153.334 79 154 71 156C67 157 63 158 59 159C60 157.167 61 155.334 62 153.5C64 149.834 64.84 147.5 64.5 146.5C64.34 146 64.17 145.5 64 145C62.67 147.667 61.34 150.334 60 153C57.34 158.334 54.17 162.667 50.5 166C46.84 169.334 43.17 171.167 39.5 171.5C35.84 171.834 32.5 172.667 29.5 174C28 174.667 26.5 175.334 25 176C26.84 172.167 28.67 168.334 30.5 164.5C34.17 156.834 38.84 150.167 44.5 144.5C50.17 138.834 57.5 133.5 66.5 128.5C71 126 75.5 123.5 80 121C80.34 123.167 80.67 125.334 81 127.5C81.67 131.834 82.5 134.334 83.5 135C84.5 135.667 87.34 134.5 92 131.5C96.67 128.5 100.5 125.167 103.5 121.5C106.5 117.834 110.84 116.167 116.5 116.5ZM368.502 121.5C362.169 125.167 359.002 127.334 359.002 128C359.002 128.334 359.002 128.667 359.002 129C362.336 127.334 365.669 125.667 369.002 124C375.669 120.667 379.169 118.5 379.502 117.5C379.669 117 379.836 116.5 380.002 116C379.669 116 379.336 116 379.002 116C378.336 116 374.836 117.834 368.502 121.5ZM0 134.5C0 135.5 3.34 137.334 10 140C13.34 141.334 16.67 142.667 20 144C20 143.667 20 143.334 20 143C20 142.334 16.67 140.5 10 137.5C6.67 136 3.34 134.5 0 133C0 133.5 0 134 0 134.5ZM300.002 149.5C308.669 149.834 315.669 151.167 321.002 153.5C326.336 155.834 329.669 157.667 331.002 159C331.669 159.667 332.336 160.334 333.002 161C330.002 161.667 327.002 162.334 324.002 163C318.002 164.334 310.169 168 300.502 174C295.669 177 290.836 180 286.002 183C285.836 180 285.669 177 285.502 174C285.169 168 284.002 162.667 282.002 158C281.002 155.667 280.002 153.334 279.002 151C280.336 150.667 281.669 150.334 283.002 150C285.669 149.334 291.336 149.167 300.002 149.5ZM93.5 157C99 157.334 104.5 157.667 110 158C109.17 160.5 108.34 163 107.5 165.5C105.84 170.5 105 175.667 105 181C105 186.334 105.5 190.5 106.5 193.5C107 195 107.5 196.5 108 198C103 194.667 98 191.334 93 188C83 181.334 75.34 177 70 175C64.67 173 59.84 171.667 55.5 171C53.34 170.667 51.17 170.334 49 170C49.67 169.167 50.34 168.334 51 167.5C52.34 165.834 54.84 164 58.5 162C62.17 160 66.17 158.5 70.5 157.5C74.84 156.5 82.5 156.334 93.5 157ZM203.5 160C211.836 160.667 218.169 161.834 222.502 163.5C226.836 165.167 230.336 167.334 233.002 170C234.336 171.334 235.669 172.667 237.002 174C234.502 174.5 232.002 175 229.502 175.5C224.502 176.5 218.669 178.334 212.002 181C205.34 183.667 196 188.667 184 196C172 203.334 162.5 208.5 155.5 211.5C148.5 214.5 141.84 215.834 135.5 215.5C129.17 215.167 123.84 213.167 119.5 209.5C115.17 205.834 112.17 202 110.5 198C108.84 194 107.84 190 107.5 186C107.17 182 115.5 177.167 132.5 171.5C149.5 165.834 163.5 162.334 174.5 161C185.5 159.667 195.17 159.334 203.5 160ZM338.002 163C343.336 163 347.836 163.834 351.502 165.5C355.169 167.167 357.169 171.5 357.502 178.5C357.836 185.5 357.002 190.334 355.002 193C353.002 195.667 351.336 197.334 350.002 198C348.669 198.667 345.336 199 340.002 199C334.669 199 325.169 196.334 311.502 191C304.669 188.334 297.836 185.667 291.002 183C293.169 181.334 295.336 179.667 297.502 178C301.836 174.667 306.336 171.834 311.002 169.5C315.669 167.167 320.002 165.5 324.002 164.5C328.002 163.5 332.669 163 338.002 163ZM272.002 173C280.002 173.667 284.002 176.167 284.002 180.5C284.002 184.834 283.169 189.334 281.502 194C279.836 198.667 278.002 202.167 276.002 204.5C274.002 206.834 271.502 208.834 268.502 210.5C265.502 212.167 262.669 213.334 260.002 214C257.336 214.667 252.002 214.834 244.002 214.5C236.002 214.167 224.002 211.5 208 206.5C200 204 192 201.5 184 199C184.67 198.334 185.34 197.667 186 197C187.34 195.667 192.5 192.834 201.5 188.5C210.502 184.167 218.836 180.834 226.502 178.5C234.169 176.167 241.669 174.5 249.002 173.5C256.336 172.5 264.002 172.334 272.002 173ZM47 173C51.67 173 57 173.834 63 175.5C69 177.167 75.34 179.834 82 183.5C88.67 187.167 93.34 190.167 96 192.5C97.34 193.667 98.67 194.834 100 196C93 198.667 86 201.334 79 204C65 209.334 54 212 46 212C38 212 33 211.334 31 210C29 208.667 27.34 206.834 26 204.5C24.67 202.167 23.84 198.167 23.5 192.5C23.17 186.834 23.17 183.167 23.5 181.5C23.84 179.834 26.67 178 32 176C37.34 174 42.34 173 47 173Z" fill="black"/>
</g>
</g>
<defs>
<clipPath id="clip0_4589_2228">
<rect width="380" height="244" fill="white"/>
</clipPath>
</defs>
</svg>
