<svg width="109" height="26" viewBox="0 0 109 26" fill="none" xmlns="http://www.w3.org/2000/svg">
<path fill-rule="evenodd" clip-rule="evenodd" d="M108.472 12.6274H103.841C103.697 11.8354 103.473 11.2775 103.169 10.964C102.673 10.4532 101.828 10.1898 100.661 10.1898C99.5109 10.1898 98.7129 10.3865 98.2665 10.7825C97.9302 11.0794 97.7541 11.4905 97.7541 12.0012C97.7541 12.7246 98.7299 13.3022 100.661 13.7471C102.866 14.2403 104.448 14.6689 105.421 15.0145C105.677 15.1135 105.9 15.196 106.061 15.2775C108.027 16.2332 109 17.6843 109 19.6268C109 21.9982 108.042 23.7277 106.141 24.8142C105.9 24.9471 105.677 25.0618 105.421 25.1772C104.192 25.7212 102.755 26 101.142 26C98.7299 26 96.7804 25.5554 95.2952 24.6822C94.3609 24.1218 93.6626 23.4182 93.1977 22.5695C92.7325 21.7212 92.5 20.7308 92.5 19.5938H97.3548C97.3548 20.4502 97.6592 21.1262 98.2498 21.5865C98.8418 22.0649 99.8478 22.3123 101.268 22.3123C102.339 22.3123 103.137 22.0806 103.665 21.62C104.081 21.2572 104.271 20.8612 104.271 20.4009C104.271 19.6268 103.315 19.0185 101.412 18.5895C98.5697 17.9634 96.7804 17.4526 96.046 17.0895C94.098 16.1514 93.1395 14.7031 93.1395 12.6917C93.1395 11.0794 93.6349 9.712 94.6563 8.59262C95.9347 7.19231 97.8505 6.5 100.391 6.5C102.483 6.5 104.16 6.81354 105.422 7.42246C105.533 7.47108 105.63 7.52154 105.726 7.58831C106.636 8.09723 107.323 8.77385 107.782 9.61477C108.242 10.4532 108.472 11.4591 108.472 12.6274" fill="black"/>
<path fill-rule="evenodd" clip-rule="evenodd" d="M85.7645 17.2675V15.2325C85.2882 12.7701 83.1041 10.898 80.5084 10.898C80.4913 10.898 80.4756 10.898 80.4581 10.898C77.5187 10.9161 75.1364 13.3123 75.1364 16.2488C75.1364 19.1877 77.5187 21.5842 80.4581 21.617C80.4756 21.617 80.4913 21.617 80.5084 21.617C83.1041 21.617 85.2882 19.7299 85.7645 17.2675ZM90.25 16.2488V25.4578H85.7645V24.4398C84.2531 25.425 82.4458 26 80.5084 26C80.4913 26 80.4756 26 80.4581 26C75.1032 25.9672 70.75 21.5995 70.75 16.2488C70.75 10.8986 75.1032 6.53312 80.4581 6.5C80.4756 6.5 80.4913 6.5 80.5084 6.5C82.4458 6.5 84.2531 7.07559 85.7645 8.05841V6.99187H90.25V16.2488V16.2488Z" fill="black"/>
<path fill-rule="evenodd" clip-rule="evenodd" d="M64.7659 17.2132V15.1657C64.2892 12.688 62.1027 10.8042 59.5077 10.8042C59.4923 10.8042 59.4748 10.8042 59.4592 10.8042C56.5179 10.8224 54.1365 13.2335 54.1365 16.1882C54.1365 19.1454 56.5179 21.5568 59.4592 21.5898C59.4748 21.5898 59.4923 21.5898 59.5077 21.5898C62.1027 21.5898 64.2892 19.691 64.7659 17.2132ZM69.25 16.1882V25.4545H64.7659V24.4301C63.2371 25.4215 61.4471 26 59.5077 26C59.4923 26 59.4748 26 59.4592 26C54.1037 25.967 49.75 21.5722 49.75 16.1882C49.75 10.8048 54.1037 6.41224 59.4592 6.37892C59.4748 6.37892 59.4923 6.37892 59.5077 6.37892C61.4474 6.37892 63.2371 6.95808 64.7659 7.947V0.5H69.25V16.1882V16.1882Z" fill="black"/>
<path fill-rule="evenodd" clip-rule="evenodd" d="M43.75 25.25H48.25V6.5H43.75V25.25Z" fill="black"/>
<path fill-rule="evenodd" clip-rule="evenodd" d="M43.75 5H48.25V0.5H43.75V5Z" fill="black"/>
<path fill-rule="evenodd" clip-rule="evenodd" d="M37.0195 17.2132V15.1657C36.5435 12.688 34.3606 10.8042 31.7502 10.8042C31.7345 10.8042 31.717 10.8042 31.7014 10.8042C28.7625 10.8224 26.3833 13.2335 26.3833 16.1882C26.3833 19.1454 28.7625 21.5568 31.7014 21.5898C31.717 21.5898 31.7345 21.5898 31.7502 21.5898C34.3606 21.5898 36.5435 19.691 37.0195 17.2132ZM41.5 16.1882V25.4545H37.0195V24.4301C35.4937 25.4215 33.688 26 31.7502 26C31.7345 26 31.717 26 31.7014 26C26.3502 25.967 22 21.5722 22 16.1882C22 10.8048 26.3502 6.41224 31.7014 6.37892C31.717 6.37892 31.7345 6.37892 31.7502 6.37892C33.688 6.37892 35.4937 6.95808 37.0195 7.947V0.5H41.5V16.1882V16.1882Z" fill="black"/>
<path fill-rule="evenodd" clip-rule="evenodd" d="M15.9403 17.2559V15.2183C15.4657 12.7528 13.289 10.8783 10.6868 10.8783C10.6693 10.8783 10.6537 10.8783 10.6363 10.8783C7.72337 10.8964 5.35131 13.2956 5.35131 16.2359C5.35131 19.1786 7.72337 21.5782 10.6363 21.611C10.6537 21.611 10.6693 21.611 10.6868 21.611C13.289 21.611 15.4657 19.7215 15.9403 17.2559ZM20.4073 16.2359V25.4568H15.9403V24.4374C14.417 25.4239 12.6167 25.9996 10.6868 25.9996C10.6693 25.9996 10.6537 25.9996 10.6363 25.9996C5.31859 25.9668 0.981445 21.5935 0.981445 16.2359C0.981445 10.8789 5.31859 6.50777 10.6363 6.47461C10.6537 6.47461 10.6693 6.47461 10.6868 6.47461C12.6167 6.47461 14.417 7.05093 15.9403 8.03501V6.96711H20.4073V16.2359V16.2359Z" fill="black"/>
</svg>
