<svg width="88" height="40" viewBox="0 0 88 40" fill="none" xmlns="http://www.w3.org/2000/svg">
<g clip-path="url(#clip0_4004_145)">
<path d="M0.67627 19.9933V-0.00195312H88.2858V39.9885H0.67627V19.9933Z" fill="black"/>
<path d="M14.7758 18.6908V12.041L20.9208 12.0859C26.9426 12.1298 27.0785 12.1354 27.6518 12.3556C29.4015 13.0269 30.2512 14.2647 30.1277 15.9619C30.0654 16.8154 29.8227 17.3257 29.1883 17.9356L28.6884 18.4163L29.2864 18.8087C29.9701 19.2577 30.5128 19.906 30.6704 20.4618C30.827 21.015 30.8042 22.1128 30.6239 22.7089C30.3057 23.7608 29.3855 24.6238 28.1646 25.0157C27.5102 25.2257 27.2478 25.2358 21.1278 25.2864L14.7705 25.339L14.7758 18.6908ZM25.9871 23.3769C26.9842 23.3086 27.1422 23.2702 27.4866 23.0121C28.0663 22.5781 28.2718 22.1787 28.2723 21.4841C28.2725 21.1565 28.2044 20.7591 28.1211 20.6006C27.89 20.1621 27.276 19.6847 26.8399 19.6042C26.6246 19.5646 24.3759 19.5276 21.8415 19.5221L17.2338 19.5121L17.2169 21.3607C17.2076 22.3776 17.2179 23.2673 17.2398 23.3377C17.2707 23.4375 18.1248 23.4647 21.075 23.4596C23.1627 23.456 25.3727 23.4187 25.9842 23.3767L25.9871 23.3769ZM26.6836 17.3817C27.9003 16.8201 28.0523 15.185 26.9638 14.3699C26.4389 13.9768 25.4808 13.908 20.9929 13.9401L17.235 13.9671L17.2062 15.7093C17.1904 16.6674 17.1961 17.4996 17.219 17.5579C17.2471 17.6299 18.7126 17.6527 21.7418 17.6284C26.0012 17.5942 26.2475 17.5819 26.6807 17.3819L26.6836 17.3817Z" fill="white" stroke="white" stroke-width="0.986376"/>
<path d="M33.5035 21.3842C33.5051 19.2237 33.548 17.0357 33.5988 16.5188C33.7195 15.2947 34.0562 14.5993 34.9633 13.6988C36.0857 12.5848 37.4744 12.0645 39.3247 12.0645C40.9732 12.0645 42.3012 12.5047 43.469 13.4386L44.0742 13.9226L44.5405 13.5197C45.1647 12.9802 46.2901 12.412 47.1097 12.2223C47.968 12.0237 49.5779 12.0237 50.4357 12.2223C52.0032 12.585 53.4636 13.6827 54.1164 14.9889L54.4744 15.7056L54.5363 25.3113H52.2571L52.1992 20.7586C52.1436 16.3894 52.1322 16.1851 51.921 15.7807C51.4042 14.7859 50.613 14.2318 49.4027 14.0163C47.7223 13.7171 46.1251 14.4711 45.4974 15.8595C45.2987 16.2989 45.2832 16.5936 45.2368 20.8207L45.1874 25.3151H42.9146L42.9045 23.903C42.899 23.1263 42.863 21.058 42.8245 19.3086L42.7546 16.1246L42.4476 15.578C42.1029 14.9639 41.6 14.5291 40.8657 14.2106C40.21 13.9259 38.812 13.9017 38.0268 14.1615C37.3435 14.3875 36.5251 15.0962 36.2011 15.742C35.9591 16.2243 35.9573 16.256 35.9214 20.7741L35.8852 25.3185H33.499L33.5035 21.3842Z" fill="white" stroke="white" stroke-width="0.986376"/>
<path d="M61.3284 25.2661C59.2492 24.9357 58.1922 24.2246 57.6376 22.7834C57.4157 22.2068 57.4062 22.0417 57.4062 18.7414C57.4062 15.346 57.4096 15.2927 57.658 14.6873C58.1714 13.4357 59.2063 12.6915 60.9632 12.3105C62.1896 12.0446 69.1253 12.0451 70.3781 12.3112C72.4318 12.7469 73.4659 13.6516 73.936 15.4235C74.0218 15.747 74.0921 16.048 74.0921 16.0926C74.0921 16.1372 73.5854 16.1738 72.9658 16.1738H71.8396L71.6582 15.6722C71.4276 15.0347 70.8279 14.4944 70.0966 14.2651C69.6448 14.1233 68.9725 14.0819 66.4895 14.0428C62.3141 13.977 61.1471 14.1599 60.3997 14.9967C59.857 15.6037 59.8141 15.8818 59.8141 18.7927V21.463L60.1068 22.0484C60.4161 22.6667 60.7358 22.926 61.5515 23.2191C62.1597 23.4377 65.1243 23.5564 67.5819 23.4603C69.1268 23.4 69.5409 23.3495 70.0467 23.1603C71.1206 22.7584 71.623 22.0117 71.7067 20.693L71.736 20.2306L64.7842 20.1765V18.3308H74.093L74.0921 19.6916C74.0908 22.046 73.7658 23.1687 72.8389 24.0192C72.2265 24.5816 71.6915 24.8543 70.6582 25.1307C69.9252 25.3269 69.5265 25.348 66.0378 25.3763C63.1666 25.3996 61.9983 25.3722 61.3282 25.2658L61.3284 25.2661Z" fill="white" stroke="white" stroke-width="0.986376"/>
</g>
<defs>
<clipPath id="clip0_4004_145">
<rect width="87.1233" height="40" fill="white" transform="translate(0.678223)"/>
</clipPath>
</defs>
</svg>
