<svg width="168" height="69" viewBox="0 0 168 69" fill="none" xmlns="http://www.w3.org/2000/svg">
<path d="M81.2002 47.4722C81.2013 46.9118 81.3685 46.3642 81.6808 45.8986C81.9931 45.4331 82.4365 45.0703 82.9551 44.8561C83.4736 44.6418 84.0441 44.5858 84.5945 44.695C85.1449 44.8042 85.6506 45.0738 86.0477 45.4697C86.4449 45.8656 86.7158 46.37 86.8262 46.9195C86.9365 47.469 86.8815 48.0387 86.668 48.557C86.4544 49.0752 86.092 49.5187 85.6263 49.8315C85.1607 50.1442 84.6127 50.3123 84.0516 50.3144C83.6783 50.3144 83.3087 50.2408 82.964 50.0978C82.6193 49.9548 82.3063 49.7453 82.0429 49.4813C81.7794 49.2172 81.5708 48.9038 81.4289 48.559C81.2871 48.2143 81.2148 47.8449 81.2162 47.4722M86.2061 47.4722C86.174 47.0616 86.0232 46.6691 85.772 46.3425C85.5207 46.0159 85.1798 45.7692 84.7908 45.6326C84.4018 45.4959 83.9813 45.475 83.5807 45.5726C83.18 45.6701 82.8163 45.8818 82.5339 46.1819C82.2515 46.4821 82.0625 46.8577 81.9899 47.2631C81.9173 47.6686 81.9643 48.0863 82.1251 48.4656C82.2859 48.8448 82.5535 49.1693 82.8956 49.3994C83.2376 49.6295 83.6392 49.7555 84.0516 49.7619C84.3429 49.7544 84.6298 49.6889 84.8954 49.5691C85.1611 49.4493 85.4 49.2778 85.5983 49.0644C85.7965 48.8511 85.9501 48.6003 86.0499 48.3269C86.1497 48.0535 86.1937 47.7629 86.1795 47.4722M82.9344 45.8784H84.1314C84.9027 45.8784 85.323 46.144 85.323 46.824C85.3315 46.9379 85.3156 47.0522 85.2763 47.1594C85.237 47.2666 85.1753 47.3642 85.0952 47.4456C85.0152 47.5271 84.9186 47.5906 84.812 47.6318C84.7054 47.673 84.5913 47.691 84.4771 47.6847L85.3389 49.0925H84.7272L83.8973 47.7059H83.5356V49.0925H82.9344V45.8784ZM83.5462 47.249H84.0782C84.4293 47.249 84.7378 47.1959 84.7378 46.7709C84.7378 46.3459 84.392 46.33 84.0835 46.33H83.5515L83.5462 47.249Z" fill="black"/>
<path d="M72.0451 17.3823C70.0067 17.41 68.0255 18.0601 66.368 19.2453C64.7104 20.4305 63.4558 22.094 62.7728 24.0123C62.6984 24.2088 62.443 25.027 62.443 25.027L56.5913 50.3144H70.0236C74.6411 50.3144 78.5352 46.9888 79.6523 42.5104L85.4615 17.377L72.0451 17.3823Z" fill="black"/>
<path d="M49.681 10.0625C47.5337 10.0686 45.4471 10.7744 43.7381 12.0727C42.0291 13.3709 40.791 15.1907 40.2119 17.2556C40.1229 17.5669 40.0501 17.8825 39.9938 18.2013L30.8545 57.6359H44.2974C46.4949 57.6275 48.6267 56.8873 50.3554 55.5324C52.084 54.1776 53.3106 52.2855 53.841 50.1559L63.1186 10.0625H49.681Z" fill="black"/>
<path d="M23.9389 17.3828C21.8263 17.4172 19.7788 18.1182 18.0894 19.3854C16.4 20.6527 15.1553 22.4212 14.5337 24.4378C14.5017 24.5281 14.4751 24.6184 14.4485 24.7141L14.2251 25.5959L8.51172 50.315H22.2632C24.2568 50.2842 26.1922 49.6396 27.8052 48.4691C29.4181 47.2986 30.6298 45.6593 31.2748 43.7753L31.8068 41.4219L37.3712 17.3828H23.9389Z" fill="black"/>
<path d="M21.433 25.5957H21.2256C20.2366 25.6067 19.2833 25.966 18.5338 26.6104C17.8332 27.1495 17.3076 27.8832 17.023 28.7195L13.9429 42.0804H14.1184C15.1158 42.0701 16.0772 41.7068 16.8315 41.0551C17.634 40.4412 18.1981 39.568 18.4274 38.5848L19.103 35.6841H25.2207C26.2169 35.663 27.1753 35.2989 27.9338 34.6535C28.7329 34.0411 29.2965 33.1725 29.5297 32.1938L29.5669 32.0185H19.9435L20.5819 29.2613H28.9073C29.8954 29.2509 30.8483 28.8936 31.599 28.252C32.3932 27.6349 32.9555 26.7682 33.195 25.7923L33.2375 25.617L21.433 25.5957Z" fill="white"/>
<path d="M55.4156 26.4039C55.1459 26.1396 54.8254 25.9327 54.4733 25.7957C54.1213 25.6588 53.7451 25.5946 53.3675 25.607H41.6162L37.8232 42.0757H37.9988C38.9962 42.0654 39.9575 41.7021 40.7119 41.0504C41.5144 40.4365 42.0785 39.5633 42.3078 38.5801L42.9887 35.6476H51.1279C52.0803 35.7291 53.0289 35.4525 53.7877 34.872C54.6058 34.1692 55.181 33.2267 55.4315 32.1785L56.1444 29.1292C56.1969 28.8828 56.2254 28.632 56.2295 28.3801C56.2383 28.0124 56.1704 27.6468 56.0303 27.3066C55.8902 26.9665 55.6809 26.659 55.4156 26.4039ZM51.7503 32.0139H43.8292L44.4676 29.2514H52.394L51.7503 32.0139Z" fill="white"/>
<path d="M79.3225 26.4143C79.0545 26.1478 78.7342 25.9394 78.3818 25.8022C78.0293 25.6651 77.6523 25.6022 77.2744 25.6175H64.9007V25.7343C64.8486 25.9719 64.8184 26.2138 64.8103 26.4568C64.7939 26.8269 64.8535 27.1963 64.9852 27.5425C65.1169 27.8887 65.3181 28.2044 65.5763 28.4703C65.8447 28.7363 66.165 28.9444 66.5173 29.0815C66.8697 29.2186 67.2465 29.2818 67.6244 29.2672H70.2204L67.2626 42.0809H67.4382C68.4373 42.0714 69.4006 41.7081 70.1566 41.0556C70.9575 40.4402 71.5212 39.5677 71.7525 38.5853L73.9176 29.2672H80.0353V29.1503C80.0905 28.9044 80.119 28.6532 80.1204 28.4012C80.1327 28.0329 80.0681 27.666 79.9308 27.324C79.7934 26.9819 79.5862 26.6721 79.3225 26.4143Z" fill="white"/>
<path d="M99.4787 41.1991C98.5907 41.9107 97.4719 42.2718 96.3348 42.2138C95.2447 42.2529 94.1617 42.0249 93.1802 41.5497L93.8611 39.8125C94.6019 40.2277 95.4374 40.4455 96.2869 40.4447C96.899 40.4712 97.5011 40.2833 97.9892 39.9135C98.2007 39.7511 98.37 39.5405 98.483 39.2992C98.5959 39.0579 98.6491 38.793 98.6382 38.5269C98.6382 37.7336 97.9608 37.0394 96.6061 36.4444C95.8081 36.1179 95.0667 35.6679 94.409 35.111C94.0674 34.8087 93.7954 34.4361 93.6117 34.0188C93.4281 33.6016 93.3371 33.1495 93.3451 32.6938C93.3243 32.2035 93.4128 31.7147 93.6041 31.2627C93.7955 30.8107 94.0849 30.4067 94.4516 30.08C95.2678 29.4179 96.3006 29.0811 97.3508 29.1344C98.3465 29.0916 99.3348 29.3231 100.208 29.8038L99.5798 31.3975C98.9218 31.0219 98.1779 30.8225 97.42 30.8185C96.8703 30.791 96.3288 30.9606 95.8932 31.2966C95.7028 31.4532 95.5514 31.6518 95.4508 31.8767C95.3502 32.1016 95.3032 32.3467 95.3134 32.5928C95.3134 33.3649 96.0227 34.0732 97.4413 34.7178C98.2126 35.0391 98.9302 35.4762 99.5692 36.0141C99.9098 36.3183 100.181 36.692 100.365 37.1099C100.548 37.5278 100.64 37.9803 100.633 38.4366C100.659 38.9539 100.569 39.4705 100.37 39.9486C100.17 40.4266 99.8655 40.8539 99.4787 41.1991Z" fill="black"/>
<path d="M108.889 40.7948C108.507 41.2394 108.033 41.5963 107.499 41.8409C106.966 42.0855 106.386 42.2122 105.799 42.2122C105.212 42.2122 104.632 42.0855 104.098 41.8409C103.565 41.5963 103.09 41.2394 102.708 40.7948C101.958 39.7842 101.581 38.545 101.644 37.2885C101.581 36.032 101.958 34.7928 102.708 33.7823C103.093 33.3416 103.568 32.9883 104.101 32.7462C104.634 32.5042 105.213 32.3789 105.799 32.3789C106.384 32.3789 106.963 32.5042 107.496 32.7462C108.029 32.9883 108.504 33.3416 108.889 33.7823C109.64 34.7928 110.016 36.032 109.953 37.2885C110.016 38.545 109.64 39.7842 108.889 40.7948ZM107.458 34.8182C107.28 34.5385 107.034 34.3082 106.743 34.1486C106.452 33.9891 106.125 33.9054 105.793 33.9054C105.461 33.9054 105.135 33.9891 104.844 34.1486C104.552 34.3082 104.306 34.5385 104.128 34.8182C103.714 35.5656 103.518 36.4143 103.564 37.2673C103.518 38.122 103.713 38.9726 104.128 39.7217C104.303 40.0063 104.547 40.2414 104.839 40.4046C105.131 40.5677 105.459 40.6534 105.793 40.6534C106.127 40.6534 106.456 40.5677 106.748 40.4046C107.039 40.2414 107.284 40.0063 107.458 39.7217C107.873 38.9726 108.069 38.122 108.022 37.2673C108.068 36.4143 107.873 35.5656 107.458 34.8182Z" fill="black"/>
<path d="M115.699 29.7671C114.447 29.7671 113.821 30.3107 113.821 31.398V32.5721H115.789V34.0118H113.842V42.023H111.965V34.0118H110.72V32.5721H111.965V31.398C111.938 30.9497 112.012 30.5011 112.183 30.0855C112.353 29.6699 112.615 29.2978 112.949 28.9968C113.639 28.4508 114.506 28.1767 115.385 28.2265C115.586 28.2259 115.787 28.2366 115.986 28.2583V29.7671H115.699Z" fill="black"/>
<path d="M121.332 41.9384C120.955 42.0949 120.549 42.1674 120.141 42.1509C118.407 42.1509 117.539 41.2266 117.539 39.3778V34.0122H116.263V32.5725H117.566V30.3838L119.449 29.8047V32.5725H121.359V34.0122H119.449V39.2822C119.449 40.0738 119.869 40.4722 120.71 40.4722C120.932 40.4757 121.153 40.4342 121.359 40.35L121.332 41.9384Z" fill="black"/>
<path d="M132.605 42.0232H130.621L128.934 36.0254C128.811 35.5769 128.716 35.1208 128.652 34.6601H128.62C128.544 35.1204 128.443 35.5762 128.317 36.0254L126.636 42.0232H124.652L121.822 32.5723H123.737L125.365 38.8145C125.491 39.3029 125.58 39.8001 125.631 40.302H125.668C125.758 39.7707 125.865 39.2395 125.982 38.8145L127.7 32.5723H129.509L131.232 38.8145C131.349 39.2554 131.45 39.7548 131.546 40.302H131.583C131.63 39.7999 131.717 39.3025 131.844 38.8145L133.525 32.5723H135.44L132.605 42.0232Z" fill="black"/>
<path d="M143.484 41.5503C142.419 42.0417 141.251 42.2695 140.079 42.2144C137.356 42.2144 135.992 41.2262 135.988 39.25C135.972 38.6925 136.134 38.1442 136.45 37.6847C136.767 37.2253 137.222 36.8785 137.749 36.6947C139.003 36.2395 140.325 36.0023 141.659 35.9934V35.3931C141.659 34.3306 140.993 33.7994 139.659 33.7994C138.756 33.7933 137.863 33.9912 137.047 34.3784L136.552 33.0609C137.593 32.612 138.717 32.3858 139.851 32.3969C142.276 32.3969 143.487 33.4594 143.484 35.5844V41.5503ZM141.659 37.2684C140.76 37.2828 139.866 37.4131 138.999 37.6562C138.65 37.7413 138.339 37.9419 138.118 38.2254C137.897 38.5089 137.778 38.8587 137.781 39.2181C137.781 40.2806 138.524 40.8119 140.01 40.8119C140.566 40.8432 141.121 40.76 141.643 40.5675L141.659 37.2684Z" fill="black"/>
<path d="M149.527 34.0436C149.21 33.9716 148.885 33.9378 148.559 33.9426C148.051 33.9243 147.545 34.0074 147.069 34.187V42.0229H145.154V33.0448C146.321 32.5818 147.569 32.356 148.825 32.3807C149.181 32.3723 149.537 32.3954 149.889 32.4498L149.527 34.0436Z" fill="black"/>
<path d="M158.65 37.2518L152.368 38.1284C152.566 39.8355 153.533 40.689 155.267 40.689C156.172 40.7179 157.071 40.5187 157.879 40.1099L158.443 41.5496C157.41 42.0289 156.277 42.2565 155.139 42.2137C154.504 42.2494 153.868 42.1484 153.275 41.9174C152.682 41.6864 152.146 41.3309 151.703 40.8749C150.847 39.8801 150.413 38.5925 150.49 37.2837C150.426 36.0079 150.824 34.7518 151.612 33.7456C151.996 33.2916 152.479 32.9319 153.024 32.6942C153.569 32.4565 154.162 32.3473 154.756 32.3749C155.288 32.3452 155.82 32.4299 156.317 32.6233C156.813 32.8167 157.263 33.1143 157.634 33.4959C158.359 34.3356 158.73 35.4224 158.671 36.5293C158.671 36.8481 158.666 37.0871 158.65 37.2518ZM156.825 36.2371C156.825 34.6009 156.116 33.7827 154.698 33.7827C154.359 33.7668 154.022 33.8318 153.714 33.9723C153.406 34.1127 153.136 34.3246 152.926 34.5902C152.433 35.2451 152.185 36.0511 152.224 36.8693L156.825 36.2371Z" fill="black"/>
</svg>
