<svg width="157" height="64" viewBox="0 0 157 64" fill="none" xmlns="http://www.w3.org/2000/svg">
<path d="M76.0781 43.5394C76.0791 43.0202 76.2358 42.5129 76.5284 42.0815C76.821 41.6502 77.2365 41.3141 77.7223 41.1156C78.2081 40.9171 78.7426 40.8652 79.2583 40.9664C79.774 41.0676 80.2477 41.3173 80.6199 41.6841C80.992 42.0509 81.2458 42.5183 81.3492 43.0273C81.4526 43.5364 81.401 44.0643 81.2009 44.5444C81.0009 45.0245 80.6613 45.4354 80.225 45.7252C79.7888 46.0149 79.2754 46.1706 78.7496 46.1726C78.3999 46.1726 78.0537 46.1044 77.7307 45.9719C77.4077 45.8395 77.1144 45.6454 76.8676 45.4007C76.6208 45.1561 76.4253 44.8657 76.2924 44.5463C76.1595 44.2269 76.0918 43.8847 76.0931 43.5394M80.7682 43.5394C80.7382 43.1589 80.5969 42.7953 80.3615 42.4927C80.1261 42.1902 79.8067 41.9617 79.4422 41.835C79.0777 41.7084 78.6838 41.6891 78.3084 41.7794C77.933 41.8698 77.5923 42.0659 77.3277 42.344C77.0631 42.6221 76.886 42.9701 76.818 43.3457C76.75 43.7213 76.794 44.1083 76.9447 44.4597C77.0953 44.8111 77.3461 45.1117 77.6665 45.3249C77.987 45.5381 78.3633 45.6548 78.7496 45.6607C79.0226 45.6538 79.2914 45.5931 79.5403 45.4821C79.7891 45.3712 80.013 45.2122 80.1987 45.0145C80.3845 44.8169 80.5283 44.5846 80.6219 44.3312C80.7154 44.0779 80.7566 43.8087 80.7433 43.5394M77.7029 42.0628H78.8244C79.5471 42.0628 79.9408 42.3089 79.9408 42.9389C79.9488 43.0443 79.9339 43.1503 79.8971 43.2496C79.8603 43.3489 79.8024 43.4393 79.7274 43.5148C79.6524 43.5902 79.562 43.649 79.4621 43.6872C79.3622 43.7254 79.2553 43.7421 79.1483 43.7362L79.9558 45.0405H79.3826L78.6051 43.7559H78.2662V45.0405H77.7029V42.0628ZM78.2761 43.3326H78.7745C79.1035 43.3326 79.3926 43.2834 79.3926 42.8897C79.3926 42.4959 79.0686 42.4812 78.7795 42.4812H78.2811L78.2761 43.3326Z" fill="white"/>
<path fill-rule="evenodd" clip-rule="evenodd" d="M16.948 17.5155C18.5309 16.3415 20.4492 15.692 22.4286 15.6602H35.0135L29.8001 37.9316L29.3017 40.112C28.6974 41.8575 27.5621 43.3762 26.0509 44.4607C24.5397 45.5451 22.7264 46.1423 20.8586 46.1709H7.97461L13.3276 23.2694L13.5369 22.4523C13.5618 22.3638 13.5867 22.2801 13.6166 22.1964C14.1991 20.3281 15.3652 18.6896 16.948 17.5155ZM19.8869 23.2692H20.0812L31.141 23.2888L31.1011 23.4513C30.8768 24.3555 30.3499 25.1584 29.6059 25.7301C28.9025 26.3246 28.0097 26.6556 27.0839 26.6653H19.2838L18.6857 29.2197H27.702L27.6671 29.3821C27.4486 30.2888 26.9206 31.0936 26.1718 31.661C25.4612 32.2589 24.5633 32.5962 23.6299 32.6158H17.8982L17.2652 35.3031C17.0504 36.2141 16.5219 37.0231 15.77 37.5918C15.0632 38.1956 14.1625 38.5322 13.2281 38.5417H13.0636L15.9494 26.1632C16.216 25.3884 16.7085 24.7087 17.3649 24.2092C18.0671 23.6122 18.9603 23.2793 19.8869 23.2692Z" fill="white"/>
<path fill-rule="evenodd" clip-rule="evenodd" d="M40.979 10.7413C42.5802 9.53849 44.5352 8.88459 46.547 8.87891H59.1369L50.4446 46.0243C49.9477 47.9973 48.7984 49.7502 47.1788 51.0054C45.5592 52.2607 43.5619 52.9465 41.5031 52.9543H28.9082L37.4709 16.4192C37.5237 16.1239 37.5919 15.8315 37.6753 15.5431C38.2178 13.63 39.3778 11.9441 40.979 10.7413ZM51.037 23.4553C51.3669 23.5822 51.6672 23.7739 51.9198 24.0187C52.1684 24.2551 52.3645 24.5399 52.4958 24.8551C52.6271 25.1703 52.6906 25.5089 52.6824 25.8496C52.6786 26.083 52.6519 26.3154 52.6027 26.5436L51.9348 29.3688C51.7001 30.3399 51.1611 31.2131 50.3947 31.8642C49.6837 32.402 48.795 32.6583 47.9026 32.5828H40.2769L39.6389 35.2996C39.4241 36.2106 38.8956 37.0196 38.1437 37.5883C37.437 38.1921 36.5363 38.5287 35.6018 38.5382H35.4373L38.991 23.2804H50.0009C50.3547 23.2689 50.7072 23.3284 51.037 23.4553ZM41.0644 29.2162H48.4858L49.0888 26.6568H41.6625L41.0644 29.2162Z" fill="white"/>
<path fill-rule="evenodd" clip-rule="evenodd" d="M62.1804 17.3872C63.7334 16.2892 65.5895 15.6868 67.4994 15.6612L80.0694 15.6562L74.6267 38.9416C73.58 43.0908 69.9317 46.1719 65.6054 46.1719H53.0205L58.503 22.7437C58.503 22.7437 58.7423 21.9858 58.8121 21.8037C59.452 20.0265 60.6274 18.4853 62.1804 17.3872ZM73.4368 23.462C73.767 23.5891 74.067 23.7822 74.3181 24.0291C74.5652 24.268 74.7593 24.5549 74.888 24.8719C75.0167 25.1888 75.0772 25.5287 75.0657 25.8699C75.0644 26.1034 75.0377 26.3361 74.986 26.5639V26.6722H69.2542L67.2257 35.3051C67.009 36.2153 66.4808 37.0237 65.7305 37.5938C65.0222 38.1983 64.1197 38.5349 63.1836 38.5437H63.0191L65.7903 26.6722H63.358C63.004 26.6857 62.6509 26.6272 62.3208 26.5002C61.9907 26.3731 61.6906 26.1804 61.4391 25.9339C61.1972 25.6876 61.0087 25.3951 60.8853 25.0743C60.7619 24.7536 60.7061 24.4113 60.7214 24.0685C60.729 23.8433 60.7574 23.6193 60.8061 23.3991V23.2908H72.3992C72.7533 23.2767 73.1065 23.335 73.4368 23.462Z" fill="white"/>
<path d="M93.203 37.7256C92.371 38.385 91.3227 38.7195 90.2573 38.6657C89.2361 38.7019 88.2213 38.4907 87.3018 38.0505L87.9397 36.441C88.6338 36.8257 89.4165 37.0274 90.2125 37.0267C90.786 37.0513 91.3501 36.8772 91.8074 36.5345C92.0055 36.3842 92.1642 36.189 92.27 35.9654C92.3758 35.7419 92.4257 35.4965 92.4155 35.2499C92.4155 34.5149 91.7808 33.8718 90.5115 33.3206C89.7639 33.0181 89.0693 32.6012 88.4531 32.0852C88.133 31.8051 87.8782 31.4599 87.7061 31.0733C87.534 30.6867 87.4488 30.2679 87.4563 29.8457C87.4368 29.3915 87.5197 28.9386 87.699 28.5198C87.8782 28.1011 88.1494 27.7268 88.493 27.4241C89.2577 26.8107 90.2254 26.4987 91.2093 26.5481C92.1422 26.5084 93.0681 26.7229 93.8858 27.1682L93.2977 28.6448C92.6812 28.2968 91.9842 28.112 91.2741 28.1083C90.7591 28.0828 90.2518 28.2399 89.8437 28.5513C89.6653 28.6964 89.5234 28.8803 89.4291 29.0887C89.3349 29.2971 89.2908 29.5242 89.3004 29.7522C89.3004 30.4675 89.9649 31.1238 91.294 31.7209C92.0167 32.0186 92.689 32.4236 93.2877 32.9219C93.6069 33.2037 93.861 33.5499 94.033 33.9371C94.205 34.3243 94.2907 34.7435 94.2845 35.1663C94.3092 35.6455 94.2248 36.1242 94.0377 36.5671C93.8505 37.0099 93.5653 37.4058 93.203 37.7256Z" fill="white"/>
<path d="M102.02 37.3518C101.662 37.7637 101.218 38.0943 100.718 38.321C100.218 38.5476 99.6744 38.6649 99.1245 38.6649C98.5745 38.6649 98.031 38.5476 97.5312 38.321C97.0314 38.0943 96.5871 37.7637 96.2287 37.3518C95.5257 36.4155 95.1734 35.2674 95.2319 34.1033C95.1734 32.9392 95.5257 31.7911 96.2287 30.8549C96.5894 30.4466 97.0344 30.1193 97.5339 29.895C98.0334 29.6707 98.5758 29.5547 99.1245 29.5547C99.6732 29.5547 100.215 29.6707 100.715 29.895C101.214 30.1193 101.66 30.4466 102.02 30.8549C102.723 31.7911 103.076 32.9392 103.017 34.1033C103.076 35.2674 102.723 36.4155 102.02 37.3518ZM100.679 31.8146C100.512 31.5555 100.282 31.3421 100.009 31.1943C99.7366 31.0465 99.4305 30.969 99.1195 30.969C98.8084 30.969 98.5023 31.0465 98.2297 31.1943C97.957 31.3421 97.7264 31.5555 97.5594 31.8146C97.1713 32.5071 96.9882 33.2933 97.0311 34.0836C96.9878 34.8755 97.1709 35.6635 97.5594 36.3575C97.7229 36.6212 97.9522 36.8391 98.2254 36.9902C98.4985 37.1413 98.8064 37.2207 99.1195 37.2207C99.4326 37.2207 99.7404 37.1413 100.014 36.9902C100.287 36.8391 100.516 36.6212 100.679 36.3575C101.068 35.6635 101.251 34.8755 101.208 34.0836C101.251 33.2933 101.068 32.5071 100.679 31.8146Z" fill="white"/>
<path d="M108.4 27.1339C107.227 27.1339 106.64 27.6375 106.64 28.6449V29.7326H108.484V31.0664H106.66V38.4886H104.901V31.0664H103.734V29.7326H104.901V28.6449C104.876 28.2295 104.946 27.8139 105.105 27.4289C105.265 27.0438 105.51 26.6991 105.823 26.4202C106.469 25.9143 107.282 25.6604 108.105 25.7065C108.294 25.706 108.482 25.7159 108.669 25.736V27.1339H108.4Z" fill="white"/>
<path d="M113.678 38.4095C113.324 38.5545 112.943 38.6217 112.561 38.6064C110.936 38.6064 110.124 37.75 110.124 36.0372V31.0661H108.928V29.7323H110.149V27.7045L111.913 27.168V29.7323H113.703V31.0661H111.913V35.9486C111.913 36.682 112.307 37.0511 113.094 37.0511C113.303 37.0544 113.51 37.0159 113.703 36.9379L113.678 38.4095Z" fill="white"/>
<path d="M124.24 38.4884H122.38L120.8 32.9316C120.685 32.5161 120.596 32.0936 120.536 31.6667H120.506C120.435 32.0932 120.34 32.5155 120.222 32.9316L118.647 38.4884H116.788L114.137 29.7324H115.931L117.456 35.5156C117.574 35.9681 117.658 36.4288 117.705 36.8937H117.74C117.825 36.4016 117.925 35.9094 118.034 35.5156L119.644 29.7324H121.339L122.954 35.5156C123.063 35.9241 123.158 36.3868 123.248 36.8937H123.283C123.326 36.4286 123.408 35.9678 123.527 35.5156L125.102 29.7324H126.896L124.24 38.4884Z" fill="white"/>
<path d="M134.432 38.0511C133.434 38.5063 132.34 38.7173 131.242 38.6663C128.69 38.6663 127.413 37.7508 127.409 35.9199C127.394 35.4034 127.545 34.8954 127.842 34.4697C128.139 34.044 128.565 33.7227 129.059 33.5525C130.234 33.1308 131.473 32.911 132.722 32.9028V32.3466C132.722 31.3622 132.098 30.87 130.848 30.87C130.002 30.8644 129.165 31.0478 128.401 31.4065L127.938 30.1859C128.913 29.77 129.966 29.5604 131.028 29.5707C133.301 29.5707 134.435 30.555 134.432 32.5238V38.0511ZM132.722 34.084C131.879 34.0973 131.042 34.2181 130.23 34.4433C129.903 34.5221 129.612 34.7079 129.404 34.9706C129.197 35.2333 129.086 35.5574 129.089 35.8904C129.089 36.8747 129.785 37.3669 131.177 37.3669C131.698 37.3959 132.218 37.3189 132.707 37.1405L132.722 34.084Z" fill="white"/>
<path d="M140.094 31.0969C139.796 31.0303 139.492 30.9989 139.187 31.0034C138.711 30.9865 138.237 31.0634 137.791 31.2298V38.4896H135.997V30.1716C137.091 29.7426 138.26 29.5335 139.436 29.5564C139.77 29.5486 140.103 29.57 140.433 29.6204L140.094 31.0969Z" fill="white"/>
<path d="M148.641 34.0686L142.755 34.8807C142.941 36.4622 143.846 37.253 145.471 37.253C146.32 37.2798 147.161 37.0953 147.918 36.7165L148.447 38.0504C147.479 38.4944 146.418 38.7053 145.352 38.6656C144.756 38.6987 144.161 38.6051 143.605 38.3911C143.05 38.1771 142.547 37.8477 142.132 37.4253C141.331 36.5036 140.923 35.3107 140.996 34.0981C140.936 32.9161 141.309 31.7524 142.047 30.8201C142.407 30.3996 142.859 30.0663 143.37 29.8461C143.881 29.6259 144.436 29.5247 144.993 29.5503C145.491 29.5228 145.99 29.6013 146.455 29.7804C146.92 29.9596 147.341 30.2352 147.689 30.5888C148.368 31.3668 148.716 32.3737 148.661 33.3992C148.661 33.6945 148.656 33.916 148.641 34.0686ZM146.932 33.1285C146.932 31.6126 146.267 30.8546 144.938 30.8546C144.621 30.8399 144.305 30.9 144.016 31.0302C143.728 31.1603 143.475 31.3566 143.278 31.6027C142.817 32.2094 142.584 32.9562 142.62 33.7142L146.932 33.1285Z" fill="white"/>
</svg>
