<svg width="164" height="36" viewBox="0 0 164 36" fill="none" xmlns="http://www.w3.org/2000/svg">
<g clip-path="url(#clip0_4004_160)">
<path d="M55.6543 15.2549C54.767 14.4102 53.584 13.9367 52.3495 13.9623C50.1249 13.9623 48.4532 15.7156 48.4532 17.9936C48.4532 20.2716 50.1506 22.0249 52.4524 22.0249C53.5068 22.0249 54.6642 21.7305 55.4228 21.2442V19.0302H52.1052V17.3665H57.2489V22.1273C56.1558 23.1255 54.1626 23.7526 52.4524 23.7526C49.1476 23.7526 46.5757 21.193 46.5757 18.0064C46.5629 14.8454 49.1218 12.273 52.2981 12.2602C52.3109 12.2602 52.3366 12.2602 52.3495 12.2602C54.1626 12.2602 55.7315 12.9001 56.8631 13.9751L55.6543 15.2549ZM62.7011 18.7743V21.7817H69.2979V23.4582H60.8494V12.529H69.2979V14.2055H62.7011V17.1106H68.282V18.7871L62.7011 18.7743ZM76.049 12.529H78.055L81.7585 21.257L85.4619 12.529H87.3779L82.6715 23.4582H80.7555L76.049 12.529ZM91.66 18.7743V21.7817H98.2568V23.4582H89.8083V12.529H98.2568V14.2055H91.66V17.1106H97.2409V18.7871L91.66 18.7743ZM109.174 23.4582L106.795 19.3502H103.568V23.4582H101.716V12.529H107.567C109.714 12.529 111.309 14.0007 111.309 15.946C111.309 17.5073 110.28 18.7615 108.776 19.1966L111.309 23.4582H109.174ZM109.431 15.946C109.431 14.8582 108.724 14.1927 107.567 14.1927H103.568V17.6737H107.567C108.724 17.6737 109.431 17.021 109.431 15.946ZM114.858 12.529H116.8L122.946 20.6299V12.529H124.76V23.4582H122.895L116.671 15.3061V23.4582H114.858V12.529ZM128.064 17.9936C128.064 14.807 130.649 12.2218 133.851 12.209C137.053 12.209 139.651 14.7814 139.663 17.968C139.663 21.1546 137.079 23.7398 133.877 23.7526H133.864C130.675 23.7654 128.077 21.2058 128.064 18.032C128.064 18.0192 128.064 18.0064 128.064 17.9936ZM137.786 17.9936C137.786 15.7156 136.076 13.9623 133.864 13.9623C131.652 13.9623 129.942 15.7156 129.942 17.9936C129.942 20.2716 131.652 22.0377 133.864 22.0377C136.076 22.0377 137.786 20.2716 137.786 17.9936ZM141.014 12.529H143.02L146.723 21.257L150.427 12.529H152.343L147.636 23.4582H145.72L141.014 12.529ZM163.826 23.4582H161.833L160.675 20.7067H155.467L154.31 23.4582H152.42L157.126 12.529H159.132L163.826 23.4582ZM159.968 19.043L158.078 14.5126L156.187 19.043H159.968ZM22.1304 13.3096C22.1304 11.262 23.5192 9.27835 24.2779 9.64948C25.1395 10.0846 23.6221 12.0171 22.1304 13.3096ZM12.666 14.0647C12.666 12.4138 14.2992 9.29115 15.2893 9.62389C16.4724 10.0078 14.312 13.1561 12.666 14.0647ZM11.0072 25.8258C10.2614 25.8642 9.75986 25.3779 9.75986 24.5844C9.75986 22.4344 12.7432 20.3996 14.9936 19.299C14.5949 22.2936 13.579 25.7106 11.0072 25.8258ZM24.7794 18.851C23.082 18.851 21.7703 20.0924 21.7703 21.5898C21.7703 22.8311 22.5162 23.8294 23.5192 23.8294C23.8664 23.8294 24.2136 23.6246 24.2136 23.1767C24.2136 22.524 23.352 22.3704 23.4163 21.3978C23.4549 20.7579 24.0593 20.3356 24.6637 20.3356C25.8596 20.3356 26.4254 21.5002 26.4254 22.6904C26.3739 24.5332 25.0109 25.813 23.4163 25.813C21.3074 25.813 19.9701 23.8166 19.9701 21.6793C19.9701 18.4927 22.0661 17.2385 23.172 16.9442C23.1849 16.9442 26.0525 17.4561 25.9624 16.1891C25.9239 15.6388 25.1009 15.4213 24.4965 15.3957C24.0464 15.3957 23.5963 15.4597 23.1591 15.6132C22.7991 15.4085 22.5419 15.0885 22.4133 14.6918C24.4708 13.1433 25.911 11.6459 25.911 9.95663C25.911 9.06079 25.3066 8.26733 24.1622 8.26733C22.1047 8.26733 20.5616 10.8653 20.5616 13.2073C20.5487 13.5912 20.5744 13.9751 20.6645 14.359C19.3657 15.3061 18.4012 15.8948 16.6395 16.9442C16.6652 16.4323 16.7295 15.9332 16.8324 15.4341C17.4368 14.7814 18.2598 13.8215 18.2598 13.0665C18.2598 12.7209 18.054 12.4138 17.6554 12.4138C16.6524 12.4138 15.9066 13.9111 15.7008 14.9605C15.2507 15.5108 14.3506 16.2019 13.5919 16.2019C12.9875 16.2019 12.7946 15.6516 12.7432 15.4597C14.6464 14.807 16.9996 12.2218 16.9996 9.87984C16.9996 9.38073 16.7938 8.28013 15.3022 8.28013C13.0518 8.28013 11.1487 11.6203 11.1487 14.2183C10.3514 14.2183 10.0428 13.3736 10.0428 12.7209C10.0428 12.0683 10.2871 11.4284 10.2871 11.2236C10.2871 11.0188 10.1842 10.7757 9.88845 10.7757C9.14262 10.7757 8.69255 11.7739 8.69255 12.9257C8.74398 14.5254 9.79844 15.5236 11.2001 15.6132C11.4058 16.5603 12.2545 17.4561 13.309 17.4561C13.9648 17.4561 14.7621 17.2513 15.315 16.7522C15.2636 17.0978 15.2122 17.4049 15.1607 17.6993C12.9618 18.851 11.3544 19.6445 9.90131 20.9371C8.75684 21.9865 8.10102 23.3814 8.10102 24.482C8.10102 25.9794 9.0526 27.3743 11.0072 27.3743C13.309 27.3743 15.0578 25.5315 15.9066 22.9847C16.3052 21.7817 16.4724 20.0412 16.5624 18.4543C18.1441 17.5841 19.6872 16.6114 21.1531 15.562C21.2817 15.7924 21.4489 15.9972 21.6546 16.1635C20.6002 16.7138 18.1055 18.2624 18.1055 21.8969C18.1055 24.4948 19.8543 27.3871 23.3134 27.3871C26.1682 27.3871 28.1228 25.0451 28.1228 22.8055C28.1356 20.7323 26.9783 18.8383 24.7794 18.851ZM33.3822 23.1255C33.3693 23.1383 33.3436 23.1639 33.2922 23.1511C33.2536 23.1383 33.2407 23.1127 33.2407 23.0871C33.6265 21.8457 33.8323 20.5531 33.8451 19.2478C33.8323 17.0594 32.945 15.7028 31.7877 15.7028C31.0804 15.7028 30.5917 16.2019 30.5917 16.9442C30.5917 18.2879 32.2377 18.3903 32.2377 21.3338C32.2377 22.5368 31.9934 23.6758 31.5819 24.93C29.7302 31.1625 23.8278 34.0547 18.0669 34.0547C15.4179 34.0547 13.5276 33.5172 12.9618 33.2613C12.9361 33.2357 12.9232 33.1973 12.9361 33.1589C12.9489 33.1205 12.9875 33.0949 13.0132 33.1077C14.2606 33.5044 15.5594 33.7092 16.8581 33.7092C19.0571 33.7092 20.3687 32.8134 20.3687 31.7128C20.3687 31.0345 19.8286 30.4714 19.1342 30.4714C19.1214 30.4714 19.1214 30.4714 19.1085 30.4714C17.7583 30.4714 17.6554 32.1607 14.7492 32.1607C13.5019 32.1607 12.396 31.9175 11.0972 31.508C4.88623 29.6139 1.92861 23.7782 1.94147 17.9936C1.94147 16.2659 2.21151 14.551 2.7516 12.9129C2.77732 12.8873 2.8159 12.8873 2.84161 12.9001C2.88019 12.9129 2.89305 12.9513 2.89305 12.9641C2.50728 14.2055 2.30153 15.498 2.28867 16.8034C2.28867 18.9918 3.18881 20.2972 4.34614 20.2972C5.00196 20.31 5.54204 19.7853 5.54204 19.1326C5.54204 19.1198 5.54204 19.107 5.54204 19.107C5.54204 17.7632 3.89607 17.6097 3.89607 14.7174C3.89607 13.476 4.14039 12.3754 4.55189 11.0828C6.45505 4.90153 12.306 1.99645 18.0669 1.95805C20.7416 1.93246 23.082 2.73871 23.172 2.8027C23.1977 2.8283 23.1977 2.86669 23.1849 2.89229C23.172 2.94348 23.1334 2.94348 23.1206 2.94348C23.0948 2.94348 21.5646 2.30359 19.2628 2.30359C17.1153 2.30359 15.7651 3.19943 15.7651 4.35123C15.7651 5.00391 16.2923 5.54142 16.961 5.55421C16.9867 5.55421 16.9996 5.55421 17.0253 5.55421C18.3755 5.55421 18.4784 3.90331 21.3846 3.90331C22.6319 3.90331 23.7378 4.14646 25.0366 4.55599C31.299 6.45005 34.1409 12.337 34.1923 18.0192C34.2052 19.7341 33.9351 21.4746 33.3822 23.1255ZM18.0669 0.84465C8.5511 0.831852 0.835581 8.51049 0.822722 17.9808C0.809863 27.4511 8.52538 35.1426 18.0412 35.1426C27.557 35.1554 35.2854 27.4767 35.2854 18.0064V17.9936C35.2854 8.53608 27.5827 0.857448 18.0669 0.84465ZM18.0669 36C8.07531 35.9744 -0.000266498 27.899 0.0254519 17.9552C0.0640295 8.04977 8.12674 0.0255955 18.0669 0C28.0328 0 36.1469 8.07537 36.1469 17.9936C36.1469 27.9118 28.0328 36 18.0669 36Z" fill="black"/>
</g>
<defs>
<clipPath id="clip0_4004_160">
<rect width="163.826" height="36" fill="white" transform="translate(-0.000488281)"/>
</clipPath>
</defs>
</svg>
