<svg width="41" height="40" viewBox="0 0 41 40" fill="none" xmlns="http://www.w3.org/2000/svg">
<g clip-path="url(#clip0_4004_139)">
<path d="M41.1985 -0.0195312H0.405273V40.0506H41.1985V-0.0195312Z" fill="black"/>
<path d="M10.8535 27.618H11.2135C11.9883 27.618 12.7513 27.618 12.7513 26.6165C12.7513 25.5805 12.0427 25.5686 11.2135 25.5686H10.8535V27.618ZM8.71533 23.8477H11.9883C13.7566 23.8477 14.9775 24.6644 14.9775 26.5514C14.9775 28.4901 13.9312 29.34 12.0655 29.34H10.8535V32.0635H8.71533" fill="white"/>
<path d="M20.0531 28.8398L22.0494 23.8477H24.373L20.8601 32.0635H19.2021L15.7427 23.8477H18.0668" fill="white"/>
<path d="M30.8137 27.0195V23.8477H32.9508V32.0635H30.8137V28.6965H27.7246V32.0635H25.5859V23.8477H27.7246V27.0195" fill="white"/>
</g>
<defs>
<clipPath id="clip0_4004_139">
<rect width="40.5479" height="40" fill="white" transform="translate(0.452148)"/>
</clipPath>
</defs>
</svg>
